<svg width="28" height="28" viewBox="0 0 28 28" fill="none" xmlns="http://www.w3.org/2000/svg">
<path fill-rule="evenodd" clip-rule="evenodd" d="M7.25 10.25C7.25 13.2514 9.12939 15.81 11.6363 17.493L11.8467 17.6312L11.1069 18.8641C10.8069 19.364 11.167 20 11.75 20H16.25C16.833 20 17.1931 19.364 16.8931 18.8641L16.1533 17.6312C18.7647 15.9518 20.75 13.3348 20.75 10.25C20.75 6.12611 17.7488 2.75 14 2.75C10.2512 2.75 7.25 6.12611 7.25 10.25ZM14.7575 16.7212C14.3892 16.9282 14.2645 17.3985 14.4819 17.7609L14.9254 18.5H13.0746L13.5181 17.7609C13.7355 17.3985 13.6108 16.9282 13.2425 16.7212C10.7353 15.312 8.75 12.9309 8.75 10.25C8.75 6.91778 11.1215 4.25 14 4.25C16.8785 4.25 19.25 6.91778 19.25 10.25C19.25 12.9309 17.2647 15.312 14.7575 16.7212ZM11.375 10.1734C11.375 8.59049 12.4253 7.33337 13.696 7.25391L13.8238 7.24992C14.238 7.24992 14.5738 6.91414 14.5738 6.49992C14.5738 6.08571 14.238 5.74992 13.8238 5.74992C11.6183 5.74992 9.875 7.75187 9.875 10.1734C9.875 10.5876 10.2108 10.9234 10.625 10.9234C11.0392 10.9234 11.375 10.5876 11.375 10.1734ZM12.4317 23.7926C11.8316 23.957 11.75 24.0664 11.75 24.5C11.75 24.9142 11.4142 25.25 11 25.25C10.5858 25.25 10.25 24.9142 10.25 24.5C10.25 23.1128 10.8967 22.6277 12.3181 22.2724L12.5683 22.2074C13.1684 22.043 13.25 21.9336 13.25 21.5C13.25 21.0858 13.5858 20.75 14 20.75C14.4142 20.75 14.75 21.0858 14.75 21.5C14.75 22.8872 14.1033 23.3723 12.6819 23.7276L12.4317 23.7926Z" fill="white"/>
</svg>
