<svg width="28" height="28" viewBox="0 0 28 28" fill="none" xmlns="http://www.w3.org/2000/svg">
<path fill-rule="evenodd" clip-rule="evenodd" d="M9.593 6.5C8.67748 6.5 7.83339 6.99606 7.38821 7.79567L5.5539 11.0655L5.39476 11.1443C4.24585 11.7413 3.5 12.7564 3.5 14V18.0733C3.5 19.9514 5.02296 21.4738 6.90125 21.4738C8.38998 21.4738 9.7076 20.5118 10.359 19.25H17.6449C18.3025 20.4894 19.6678 21.4738 21.0995 21.4738C22.9777 21.4738 24.5 19.9515 24.5 18.0733V14C24.5 12.6589 23.8267 11.6067 22.6402 11.0542L20.5933 7.7643C20.1666 6.99599 19.3232 6.5 18.4078 6.5H9.593ZM21.7591 12.4775H22.133L22.252 12.5475C22.7487 12.8636 23 13.3439 23 14V18.0732C23 19.123 22.1493 19.9738 21.0995 19.9738C20.1628 19.9738 19.1591 19.1502 18.8374 18.2481L18.6598 17.75H9.33981L9.1624 18.2486C8.82768 19.1892 7.89098 19.9738 6.90125 19.9738C5.85126 19.9738 5 19.1228 5 18.0732V14C5 13.3769 5.39604 12.835 6.0822 12.4775H6.48172L6.48185 12.4773H21.7589L21.7591 12.4775ZM20.8258 10.9773L19.2423 8.43182C19.052 8.16286 18.7417 8 18.4078 8H9.593C9.2217 8 8.8792 8.20128 8.69761 8.52744L7.32331 10.9773H20.8258ZM7.45482 14.8862C7.45482 14.3972 7.84782 13.9997 8.34958 13.9997H10.1053C10.5996 13.9997 11.0001 14.3935 11.0001 14.8862C11.0001 15.376 10.6071 15.7727 10.1053 15.7727H8.34958C7.85532 15.7727 7.45482 15.379 7.45482 14.8862ZM17.0001 14.8862C17.0001 14.3972 17.3931 13.9997 17.8949 13.9997H19.6507C20.1449 13.9997 20.5454 14.3935 20.5454 14.8862C20.5454 15.376 20.1524 15.7727 19.6507 15.7727H17.8949C17.4007 15.7727 17.0001 15.379 17.0001 14.8862Z" fill="white"/>
</svg>
