<svg width="38" height="38" viewBox="0 0 38 38" fill="none" xmlns="http://www.w3.org/2000/svg">
<path fill-rule="evenodd" clip-rule="evenodd" d="M32.3273 14.7738C32.0267 15.2613 31.3878 15.4127 30.9003 15.1121L19.0002 7.77371L7.10007 15.1121C6.61257 15.4127 5.97367 15.2613 5.67304 14.7738C5.37242 14.2863 5.52391 13.6474 6.01141 13.3467L18.4559 5.67265C18.7896 5.46686 19.2108 5.46686 19.5445 5.67265L27.2965 10.453V7.59249C27.2965 7.01975 27.7608 6.55545 28.3335 6.55545C28.9063 6.55545 29.3706 7.01975 29.3706 7.59249V11.732L31.989 13.3467C32.4765 13.6474 32.628 14.2863 32.3273 14.7738ZM27.2965 28.3332V16.9258C27.2965 16.3531 27.7608 15.8888 28.3335 15.8888C28.9063 15.8888 29.3706 16.3531 29.3706 16.9258V28.3332C29.3706 30.0509 27.9771 31.4443 26.2594 31.4443H11.7409C10.0233 31.4443 8.62981 30.0509 8.62981 28.3332V16.9258C8.62981 16.3531 9.09411 15.8888 9.66685 15.8888C10.2396 15.8888 10.7039 16.3531 10.7039 16.9258V28.3332C10.7039 28.9054 11.1688 29.3703 11.7409 29.3703H26.2594C26.8316 29.3703 27.2965 28.9054 27.2965 28.3332ZM23.1483 18.9999C23.1483 17.8544 22.2197 16.9258 21.0743 16.9258H16.9261C15.7806 16.9258 14.852 17.8544 14.852 18.9999V23.148C14.852 24.2935 15.7806 25.2221 16.9261 25.2221H21.0743C22.2197 25.2221 23.1483 24.2935 23.1483 23.148V18.9999ZM16.9261 18.9999V23.148H21.0743V18.9999H16.9261Z" fill="white"/>
</svg>
