<svg width="38" height="38" viewBox="0 0 38 38" fill="none" xmlns="http://www.w3.org/2000/svg">
<path fill-rule="evenodd" clip-rule="evenodd" d="M25.2225 32.4814H12.7781C11.0605 32.4814 9.66699 31.0879 9.66699 29.3703V8.62954C9.66699 6.91192 11.0605 5.51843 12.7781 5.51843H25.2225C26.9402 5.51843 28.3337 6.91192 28.3337 8.62954V29.3703C28.3337 31.0879 26.9402 32.4814 25.2225 32.4814ZM25.2225 30.4073C25.7947 30.4073 26.2596 29.9424 26.2596 29.3703V8.62954C26.2596 8.05739 25.7947 7.59251 25.2225 7.59251H22.6333C22.6333 8.45162 21.9369 9.14806 21.0778 9.14806H16.9264C16.0673 9.14806 15.3709 8.45162 15.3709 7.59251H12.7781C12.206 7.59251 11.7411 8.05739 11.7411 8.62954V29.3703C11.7411 29.9424 12.206 30.4073 12.7781 30.4073M17.9633 28.3332H20.0374C20.6101 28.3332 21.0744 27.8689 21.0744 27.2962C21.0744 26.7235 20.6101 26.2592 20.0374 26.2592H17.9633C17.3905 26.2592 16.9263 26.7235 16.9263 27.2962C16.9263 27.8689 17.3905 28.3332 17.9633 28.3332Z" fill="white"/>
</svg>
