<svg width="28" height="28" viewBox="0 0 28 28" fill="none" xmlns="http://www.w3.org/2000/svg">
<path fill-rule="evenodd" clip-rule="evenodd" d="M15.8347 8.5331L18.6861 5.68236C19.7031 4.66334 21.6126 4.89478 22.6631 5.9463C23.7152 6.99735 23.9472 8.90664 22.9288 9.92398L20.0776 12.7752L21.8018 20.6846C21.9098 21.1839 21.7566 21.7042 21.396 22.0633L20.0953 23.3647C19.5091 23.951 18.5582 23.951 17.9734 23.3647C17.9061 23.2974 17.8454 23.2232 17.786 23.1364L14.5583 18.2949L12.3246 20.5276L12.5013 22.2196C12.5477 22.6691 12.389 23.115 12.0697 23.4343L10.5337 24.9711C10.1874 25.3176 9.60714 25.2444 9.35772 24.8227L7.28748 21.3224L3.78721 19.2522C3.36542 19.0027 3.29226 18.4224 3.63894 18.0761L5.17419 16.5423C5.49368 16.2213 5.94087 16.0628 6.39167 16.1094L8.08231 16.2854L10.3156 14.0522L5.47952 10.8274C5.39498 10.7721 5.31676 10.7081 5.24518 10.6365C4.6599 10.0512 4.6599 9.1021 5.24518 8.51532L6.54753 7.21297C6.90855 6.85345 7.42788 6.70097 7.92651 6.80911L15.8347 8.5331ZM19.0345 22.3042L20.3363 21.0017L18.8173 14.0359L15.6398 17.2129L19.0345 22.3042ZM13.8689 16.8632L11.0113 19.7194C10.8513 19.8793 10.7721 20.1029 10.7956 20.3278L11.0089 22.3738L10.1565 23.2267L8.48055 20.3931C8.41625 20.2844 8.32553 20.1937 8.21682 20.1294L5.38343 18.4536L6.23692 17.6014L8.28235 17.8144C8.50715 17.8378 8.73052 17.7585 8.89034 17.5987L12.0231 14.466C12.3577 14.1313 12.3026 13.5742 11.9088 13.3117L6.30652 9.5753L7.60781 8.27486L15.9155 10.0859C16.165 10.1403 16.425 10.0641 16.6055 9.88354L19.7473 6.74254C20.1145 6.37457 21.0886 6.49263 21.6024 7.00696C22.1176 7.52159 22.236 8.49591 21.8685 8.86305L18.7272 12.0043C18.7221 12.0094 18.717 12.0146 18.712 12.0199L13.8908 16.8404C13.8833 16.8479 13.876 16.8555 13.8689 16.8632Z" fill="white"/>
</svg>
